<?xml version="1.0"?>
<svg xmlns="http://www.w3.org/2000/svg" viewBox="0 0 50 50">
    <path style="text-indent:0;text-align:start;line-height:normal;text-transform:none;block-progression:tb;-inkscape-font-specification:Sans" d="M 10.71875 2 L 10.34375 5.21875 C 9.64575 5.38975 8.973 5.66825 8.375 6.03125 L 5.84375 4.03125 L 4.03125 5.84375 L 6.03125 8.375 C 5.66825 8.973 5.38975 9.64575 5.21875 10.34375 L 2 10.71875 L 2 13.28125 L 5.21875 13.65625 C 5.38975 14.35425 5.66825 15.027 6.03125 15.625 L 4.03125 18.15625 L 5.84375 19.96875 L 8.375 17.96875 C 8.973 18.33175 9.64575 18.61025 10.34375 18.78125 L 10.71875 22 L 13.28125 22 L 13.65625 18.78125 C 14.35425 18.61025 15.027 18.33175 15.625 17.96875 L 18.15625 19.96875 L 19.96875 18.15625 L 17.96875 15.625 C 18.33175 15.027 18.61025 14.35425 18.78125 13.65625 L 22 13.28125 L 22 10.71875 L 18.78125 10.34375 C 18.61025 9.64575 18.33175 8.973 17.96875 8.375 L 19.96875 5.84375 L 18.15625 4.03125 L 15.625 6.03125 C 15.027 5.66825 14.35425 5.38975 13.65625 5.21875 L 13.28125 2 L 10.71875 2 z M 47.28125 8.125 L 38.53125 9.875 C 38.21625 9.939 38 10.2415 38 10.5625 L 38 31.65625 C 38 36.54525 29 33.507 29 39.625 C 29 42.265 30.166 44 34 44 C 37.684 44 40 41.34375 40 38.34375 L 40 17 L 47.5 15.46875 C 47.814 15.40475 48.03125 15.1335 48.03125 14.8125 L 48.03125 8.71875 C 48.03125 8.32075 47.67125 8.046 47.28125 8.125 z M 12 9 C 13.657 9 15 10.343 15 12 C 15 13.657 13.657 15 12 15 C 10.343 15 9 13.657 9 12 C 9 10.343 10.343 9 12 9 z M 26 10 L 26 12 L 33 12 L 33 10 L 26 10 z M 26 18 L 26 20 L 33 20 L 33 18 L 26 18 z M 2 26 L 2 28 L 33 28 L 33 26 L 2 26 z M 2 34 L 2 36 L 26 36 L 26 34 L 2 34 z M 2 42 L 2 44 L 26 44 L 26 42 L 2 42 z" overflow="visible" font-family="Sans"/>
</svg>
